<mxfile host="app.diagrams.net" agent="Mozilla/5.0 (Windows NT 10.0; Win64; x64) AppleWebKit/537.36 (KHTML, like Gecko) Chrome/135.0.0.0 Safari/537.36" version="26.2.9">
  <diagram name="第 1 页" id="jcsu0ifiuYBYUi2_rB25">
    <mxGraphModel dx="3256" dy="1570" grid="0" gridSize="10" guides="1" tooltips="1" connect="1" arrows="1" fold="1" page="0" pageScale="1" pageWidth="827" pageHeight="1169" math="0" shadow="0">
      <root>
        <mxCell id="0" />
        <mxCell id="1" parent="0" />
        <mxCell id="IDqaXiTxqVLF_361lomE-16" value="输入" style="whiteSpace=wrap;strokeWidth=2;fontSize=21;" parent="1" vertex="1">
          <mxGeometry x="155" y="20" width="92" height="49" as="geometry" />
        </mxCell>
        <mxCell id="IDqaXiTxqVLF_361lomE-17" value="1.遮掩文本构建" style="whiteSpace=wrap;strokeWidth=2;fontSize=21;" parent="1" vertex="1">
          <mxGeometry x="122" y="119" width="158" height="49" as="geometry" />
        </mxCell>
        <mxCell id="IDqaXiTxqVLF_361lomE-18" value="2.大模型填充被遮掩数字" style="whiteSpace=wrap;strokeWidth=2;fontSize=21;fillStyle=hatch;fillColor=#BABABA;" parent="1" vertex="1">
          <mxGeometry x="81" y="218" width="240" height="49" as="geometry" />
        </mxCell>
        <mxCell id="IDqaXiTxqVLF_361lomE-19" value="3.验证填充内容" style="rhombus;strokeWidth=2;whiteSpace=wrap;fontSize=21;" parent="1" vertex="1">
          <mxGeometry x="175" y="370" width="202" height="66" as="geometry" />
        </mxCell>
        <mxCell id="IDqaXiTxqVLF_361lomE-20" value="3.1 反馈错误信息" style="whiteSpace=wrap;strokeWidth=2;fontSize=21;" parent="1" vertex="1">
          <mxGeometry x="3" y="587" width="175" height="49" as="geometry" />
        </mxCell>
        <mxCell id="IDqaXiTxqVLF_361lomE-21" value="4. 需填充估计值?" style="rhombus;strokeWidth=2;whiteSpace=wrap;fontSize=21;" parent="1" vertex="1">
          <mxGeometry x="210" y="587" width="210" height="79" as="geometry" />
        </mxCell>
        <mxCell id="IDqaXiTxqVLF_361lomE-22" value="5. 由大模型判断对错" style="whiteSpace=wrap;strokeWidth=2;fontSize=21;fillStyle=hatch;fillColor=#BABABA;" parent="1" vertex="1">
          <mxGeometry x="275" y="753" width="205" height="56" as="geometry" />
        </mxCell>
        <mxCell id="IDqaXiTxqVLF_361lomE-23" value="6. 输出填充的数字列表" style="whiteSpace=wrap;strokeWidth=2;fontSize=21;" parent="1" vertex="1">
          <mxGeometry x="225" y="859" width="157" height="53" as="geometry" />
        </mxCell>
        <mxCell id="IDqaXiTxqVLF_361lomE-25" value="" style="curved=1;startArrow=none;endArrow=block;exitX=0.5;exitY=1;entryX=0.5;entryY=0;rounded=0;fontSize=21;" parent="1" source="IDqaXiTxqVLF_361lomE-16" target="IDqaXiTxqVLF_361lomE-17" edge="1">
          <mxGeometry relative="1" as="geometry">
            <Array as="points" />
          </mxGeometry>
        </mxCell>
        <mxCell id="IDqaXiTxqVLF_361lomE-26" value="" style="curved=1;startArrow=none;endArrow=block;exitX=0.5;exitY=1;entryX=0.5;entryY=0;rounded=0;fontSize=21;" parent="1" source="IDqaXiTxqVLF_361lomE-17" target="IDqaXiTxqVLF_361lomE-18" edge="1">
          <mxGeometry relative="1" as="geometry">
            <Array as="points" />
          </mxGeometry>
        </mxCell>
        <mxCell id="IDqaXiTxqVLF_361lomE-27" value="" style="curved=1;startArrow=none;endArrow=block;exitX=0.65;exitY=1;entryX=0.5;entryY=0;rounded=0;fontSize=21;" parent="1" source="IDqaXiTxqVLF_361lomE-18" target="IDqaXiTxqVLF_361lomE-19" edge="1">
          <mxGeometry relative="1" as="geometry">
            <Array as="points">
              <mxPoint x="271" y="292" />
            </Array>
          </mxGeometry>
        </mxCell>
        <mxCell id="IDqaXiTxqVLF_361lomE-28" value="不通过" style="curved=1;startArrow=none;endArrow=block;exitX=0.03;exitY=1;entryX=0.6;entryY=0;rounded=0;fontSize=21;" parent="1" source="IDqaXiTxqVLF_361lomE-19" target="IDqaXiTxqVLF_361lomE-20" edge="1">
          <mxGeometry relative="1" as="geometry">
            <Array as="points">
              <mxPoint x="168" y="500" />
            </Array>
          </mxGeometry>
        </mxCell>
        <mxCell id="IDqaXiTxqVLF_361lomE-29" value="" style="curved=1;startArrow=none;endArrow=block;exitX=0.47;exitY=0;entryX=0.22;entryY=1;rounded=0;fontSize=21;" parent="1" source="IDqaXiTxqVLF_361lomE-20" target="IDqaXiTxqVLF_361lomE-18" edge="1">
          <mxGeometry relative="1" as="geometry">
            <Array as="points">
              <mxPoint x="76" y="500" />
              <mxPoint x="76" y="292" />
            </Array>
          </mxGeometry>
        </mxCell>
        <mxCell id="IDqaXiTxqVLF_361lomE-30" value="通过" style="curved=1;startArrow=none;endArrow=block;exitX=0.65;exitY=1;entryX=0.5;entryY=0;rounded=0;fontSize=21;" parent="1" source="IDqaXiTxqVLF_361lomE-19" target="IDqaXiTxqVLF_361lomE-21" edge="1">
          <mxGeometry relative="1" as="geometry">
            <Array as="points">
              <mxPoint x="304" y="500" />
            </Array>
          </mxGeometry>
        </mxCell>
        <mxCell id="IDqaXiTxqVLF_361lomE-31" value="是" style="curved=1;startArrow=none;endArrow=block;exitX=0.83;exitY=1;entryX=0.5;entryY=0;rounded=0;fontSize=21;" parent="1" source="IDqaXiTxqVLF_361lomE-21" target="IDqaXiTxqVLF_361lomE-22" edge="1">
          <mxGeometry relative="1" as="geometry">
            <Array as="points">
              <mxPoint x="378" y="724" />
            </Array>
          </mxGeometry>
        </mxCell>
        <mxCell id="IDqaXiTxqVLF_361lomE-32" value="" style="curved=1;startArrow=none;endArrow=block;exitX=0.5;exitY=1;entryX=0.73;entryY=0;rounded=0;fontSize=21;" parent="1" source="IDqaXiTxqVLF_361lomE-22" target="IDqaXiTxqVLF_361lomE-23" edge="1">
          <mxGeometry relative="1" as="geometry">
            <Array as="points">
              <mxPoint x="378" y="834" />
            </Array>
          </mxGeometry>
        </mxCell>
        <mxCell id="IDqaXiTxqVLF_361lomE-33" value="否" style="curved=1;startArrow=none;endArrow=block;exitX=0.17;exitY=1;entryX=0.27;entryY=0;rounded=0;fontSize=21;" parent="1" source="IDqaXiTxqVLF_361lomE-21" target="IDqaXiTxqVLF_361lomE-23" edge="1">
          <mxGeometry relative="1" as="geometry">
            <Array as="points">
              <mxPoint x="230" y="724" />
              <mxPoint x="230" y="834" />
            </Array>
          </mxGeometry>
        </mxCell>
        <mxCell id="IDqaXiTxqVLF_361lomE-35" value="开始生成报告" style="whiteSpace=wrap;strokeWidth=2;fontSize=21;" parent="1" vertex="1">
          <mxGeometry x="893" y="1060" width="157" height="49" as="geometry" />
        </mxCell>
        <mxCell id="IDqaXiTxqVLF_361lomE-36" value="遍历每个模块" style="whiteSpace=wrap;strokeWidth=2;fontSize=21;" parent="1" vertex="1">
          <mxGeometry x="893" y="1159" width="157" height="49" as="geometry" />
        </mxCell>
        <mxCell id="IDqaXiTxqVLF_361lomE-37" value="输入表格数据及数据洞察要求至大模型" style="whiteSpace=wrap;strokeWidth=2;fontSize=21;" parent="1" vertex="1">
          <mxGeometry x="633" y="1268" width="200" height="80" as="geometry" />
        </mxCell>
        <mxCell id="IDqaXiTxqVLF_361lomE-38" value="生成模块数据洞察" style="whiteSpace=wrap;strokeWidth=2;fontSize=21;" parent="1" vertex="1">
          <mxGeometry x="639" y="1397" width="188" height="49" as="geometry" />
        </mxCell>
        <mxCell id="IDqaXiTxqVLF_361lomE-39" value="执行初步校验" style="rhombus;strokeWidth=2;whiteSpace=wrap;fontSize=21;" parent="1" vertex="1">
          <mxGeometry x="634" y="1526" width="196" height="67" as="geometry" />
        </mxCell>
        <mxCell id="IDqaXiTxqVLF_361lomE-40" value="保存模块输出" style="whiteSpace=wrap;strokeWidth=2;fontSize=21;" parent="1" vertex="1">
          <mxGeometry x="831" y="1722" width="157" height="49" as="geometry" />
        </mxCell>
        <mxCell id="IDqaXiTxqVLF_361lomE-41" value="整合模块输出" style="whiteSpace=wrap;strokeWidth=2;fontSize=21;" parent="1" vertex="1">
          <mxGeometry x="893" y="1281" width="157" height="49" as="geometry" />
        </mxCell>
        <mxCell id="IDqaXiTxqVLF_361lomE-42" value="生成完整报告" style="whiteSpace=wrap;strokeWidth=2;fontSize=21;" parent="1" vertex="1">
          <mxGeometry x="894" y="1380" width="156" height="49" as="geometry" />
        </mxCell>
        <mxCell id="IDqaXiTxqVLF_361lomE-43" value="结束" style="whiteSpace=wrap;strokeWidth=2;fontSize=21;" parent="1" vertex="1">
          <mxGeometry x="925" y="1551" width="94" height="49" as="geometry" />
        </mxCell>
        <mxCell id="IDqaXiTxqVLF_361lomE-44" value="" style="curved=1;startArrow=none;endArrow=block;exitX=0.5;exitY=1;entryX=0.5;entryY=0;rounded=0;fontSize=21;" parent="1" source="IDqaXiTxqVLF_361lomE-35" target="IDqaXiTxqVLF_361lomE-36" edge="1">
          <mxGeometry relative="1" as="geometry">
            <Array as="points" />
          </mxGeometry>
        </mxCell>
        <mxCell id="IDqaXiTxqVLF_361lomE-45" value="" style="curved=1;startArrow=none;endArrow=block;exitX=0;exitY=0.91;entryX=0.5;entryY=0;rounded=0;fontSize=21;" parent="1" source="IDqaXiTxqVLF_361lomE-36" target="IDqaXiTxqVLF_361lomE-37" edge="1">
          <mxGeometry relative="1" as="geometry">
            <Array as="points">
              <mxPoint x="733" y="1245" />
            </Array>
          </mxGeometry>
        </mxCell>
        <mxCell id="IDqaXiTxqVLF_361lomE-46" value="" style="curved=1;startArrow=none;endArrow=block;exitX=0.5;exitY=1;entryX=0.5;entryY=0;rounded=0;fontSize=21;" parent="1" source="IDqaXiTxqVLF_361lomE-37" target="IDqaXiTxqVLF_361lomE-38" edge="1">
          <mxGeometry relative="1" as="geometry">
            <Array as="points" />
          </mxGeometry>
        </mxCell>
        <mxCell id="IDqaXiTxqVLF_361lomE-47" value="" style="curved=1;startArrow=none;endArrow=block;exitX=0.44;exitY=1;entryX=0.37;entryY=0;rounded=0;fontSize=21;" parent="1" source="IDqaXiTxqVLF_361lomE-38" target="IDqaXiTxqVLF_361lomE-39" edge="1">
          <mxGeometry relative="1" as="geometry">
            <Array as="points">
              <mxPoint x="706" y="1466" />
            </Array>
          </mxGeometry>
        </mxCell>
        <mxCell id="IDqaXiTxqVLF_361lomE-48" value="校验失败" style="curved=1;startArrow=none;endArrow=block;exitX=0.91;exitY=0;entryX=0.7;entryY=1;rounded=0;fontSize=21;" parent="1" source="IDqaXiTxqVLF_361lomE-39" target="IDqaXiTxqVLF_361lomE-38" edge="1">
          <mxGeometry relative="1" as="geometry">
            <Array as="points">
              <mxPoint x="825" y="1466" />
            </Array>
          </mxGeometry>
        </mxCell>
        <mxCell id="IDqaXiTxqVLF_361lomE-49" value="校验通过" style="curved=1;startArrow=none;endArrow=block;exitX=0.5;exitY=1;entryX=0.05;entryY=0;rounded=0;fontSize=21;" parent="1" source="IDqaXiTxqVLF_361lomE-39" target="IDqaXiTxqVLF_361lomE-40" edge="1">
          <mxGeometry relative="1" as="geometry">
            <Array as="points">
              <mxPoint x="733" y="1686" />
            </Array>
          </mxGeometry>
        </mxCell>
        <mxCell id="IDqaXiTxqVLF_361lomE-50" value="" style="curved=1;startArrow=none;endArrow=block;exitX=0.95;exitY=0;entryX=0.79;entryY=1;rounded=0;fontSize=21;" parent="1" source="IDqaXiTxqVLF_361lomE-40" target="IDqaXiTxqVLF_361lomE-36" edge="1">
          <mxGeometry relative="1" as="geometry">
            <Array as="points">
              <mxPoint x="1085" y="1686" />
              <mxPoint x="1085" y="1245" />
            </Array>
          </mxGeometry>
        </mxCell>
        <mxCell id="IDqaXiTxqVLF_361lomE-51" value="所有模块完成" style="curved=1;startArrow=none;endArrow=block;exitX=0.5;exitY=1;entryX=0.5;entryY=0;rounded=0;fontSize=21;" parent="1" source="IDqaXiTxqVLF_361lomE-36" target="IDqaXiTxqVLF_361lomE-41" edge="1">
          <mxGeometry relative="1" as="geometry">
            <Array as="points" />
          </mxGeometry>
        </mxCell>
        <mxCell id="IDqaXiTxqVLF_361lomE-52" value="" style="curved=1;startArrow=none;endArrow=block;exitX=0.5;exitY=1;entryX=0.5;entryY=0;rounded=0;fontSize=21;" parent="1" source="IDqaXiTxqVLF_361lomE-41" target="IDqaXiTxqVLF_361lomE-42" edge="1">
          <mxGeometry relative="1" as="geometry">
            <Array as="points" />
          </mxGeometry>
        </mxCell>
        <mxCell id="IDqaXiTxqVLF_361lomE-53" value="" style="curved=1;startArrow=none;endArrow=block;exitX=0.5;exitY=1;entryX=0.49;entryY=0;rounded=0;fontSize=21;" parent="1" source="IDqaXiTxqVLF_361lomE-42" target="IDqaXiTxqVLF_361lomE-43" edge="1">
          <mxGeometry relative="1" as="geometry">
            <Array as="points" />
          </mxGeometry>
        </mxCell>
        <mxCell id="RPZTGEcz5FUfWzpaEWH6-64" value="开始" style="rounded=1;arcSize=20;strokeWidth=2;fontSize=22;" vertex="1" parent="1">
          <mxGeometry x="131" y="1844" width="62" height="54" as="geometry" />
        </mxCell>
        <mxCell id="RPZTGEcz5FUfWzpaEWH6-65" value="1. 调用大模型评测正确性" style="whiteSpace=wrap;strokeWidth=2;fontSize=22;" vertex="1" parent="1">
          <mxGeometry x="32" y="1948" width="260" height="78" as="geometry" />
        </mxCell>
        <mxCell id="RPZTGEcz5FUfWzpaEWH6-66" value="启用反馈机制?" style="rhombus;strokeWidth=2;whiteSpace=wrap;fontSize=22;" vertex="1" parent="1">
          <mxGeometry x="62" y="2086" width="200" height="94" as="geometry" />
        </mxCell>
        <mxCell id="RPZTGEcz5FUfWzpaEWH6-67" value="2. 检查评测结果" style="whiteSpace=wrap;strokeWidth=2;fontSize=22;" vertex="1" parent="1">
          <mxGeometry x="20" y="2253" width="260" height="78" as="geometry" />
        </mxCell>
        <mxCell id="RPZTGEcz5FUfWzpaEWH6-68" value="评测通过?" style="rhombus;strokeWidth=2;whiteSpace=wrap;fontSize=22;" vertex="1" parent="1">
          <mxGeometry x="88" y="2404" width="124" height="86" as="geometry" />
        </mxCell>
        <mxCell id="RPZTGEcz5FUfWzpaEWH6-69" value="组装历史消息（动态裁剪+位置优化）" style="whiteSpace=wrap;strokeWidth=2;fontSize=22;" vertex="1" parent="1">
          <mxGeometry x="20" y="2563" width="260" height="78" as="geometry" />
        </mxCell>
        <mxCell id="RPZTGEcz5FUfWzpaEWH6-70" value="反馈重测" style="whiteSpace=wrap;strokeWidth=2;fontSize=22;" vertex="1" parent="1">
          <mxGeometry x="88" y="2691" width="124" height="54" as="geometry" />
        </mxCell>
        <mxCell id="RPZTGEcz5FUfWzpaEWH6-71" value="记录有效结果" style="whiteSpace=wrap;strokeWidth=2;fontSize=22;" vertex="1" parent="1">
          <mxGeometry x="330" y="2613" width="156" height="54" as="geometry" />
        </mxCell>
        <mxCell id="RPZTGEcz5FUfWzpaEWH6-72" value="启动投票机制" style="whiteSpace=wrap;strokeWidth=2;fontSize=22;" vertex="1" parent="1">
          <mxGeometry x="330" y="2729" width="156" height="54" as="geometry" />
        </mxCell>
        <mxCell id="RPZTGEcz5FUfWzpaEWH6-73" value="重复执行N轮" style="whiteSpace=wrap;strokeWidth=2;fontSize=22;" vertex="1" parent="1">
          <mxGeometry x="333" y="2833" width="150" height="54" as="geometry" />
        </mxCell>
        <mxCell id="RPZTGEcz5FUfWzpaEWH6-74" value="汇总所有评测结果" style="whiteSpace=wrap;strokeWidth=2;fontSize=22;" vertex="1" parent="1">
          <mxGeometry x="314" y="2937" width="188" height="54" as="geometry" />
        </mxCell>
        <mxCell id="RPZTGEcz5FUfWzpaEWH6-75" value="多维度投票决策" style="whiteSpace=wrap;strokeWidth=2;fontSize=22;" vertex="1" parent="1">
          <mxGeometry x="322" y="3041" width="172" height="54" as="geometry" />
        </mxCell>
        <mxCell id="RPZTGEcz5FUfWzpaEWH6-76" value="结束" style="rounded=1;arcSize=20;strokeWidth=2;fontSize=22;" vertex="1" parent="1">
          <mxGeometry x="377" y="3145" width="62" height="54" as="geometry" />
        </mxCell>
        <mxCell id="RPZTGEcz5FUfWzpaEWH6-77" value="" style="curved=1;startArrow=none;endArrow=block;exitX=0.49;exitY=1;entryX=0.5;entryY=0;rounded=0;fontSize=22;" edge="1" parent="1" source="RPZTGEcz5FUfWzpaEWH6-64" target="RPZTGEcz5FUfWzpaEWH6-65">
          <mxGeometry relative="1" as="geometry">
            <Array as="points" />
          </mxGeometry>
        </mxCell>
        <mxCell id="RPZTGEcz5FUfWzpaEWH6-78" value="" style="curved=1;startArrow=none;endArrow=block;exitX=0.5;exitY=1;entryX=0.5;entryY=0;rounded=0;fontSize=22;entryDx=0;entryDy=0;exitDx=0;exitDy=0;" edge="1" parent="1" source="RPZTGEcz5FUfWzpaEWH6-65" target="RPZTGEcz5FUfWzpaEWH6-66">
          <mxGeometry relative="1" as="geometry">
            <Array as="points" />
            <mxPoint x="140" y="2024" as="targetPoint" />
          </mxGeometry>
        </mxCell>
        <mxCell id="RPZTGEcz5FUfWzpaEWH6-79" value="是" style="curved=1;startArrow=none;endArrow=block;exitX=0.5;exitY=1;entryX=0.5;entryY=0;rounded=0;fontSize=22;exitDx=0;exitDy=0;" edge="1" parent="1" source="RPZTGEcz5FUfWzpaEWH6-66" target="RPZTGEcz5FUfWzpaEWH6-67">
          <mxGeometry relative="1" as="geometry">
            <Array as="points">
              <mxPoint x="150" y="2216" />
            </Array>
          </mxGeometry>
        </mxCell>
        <mxCell id="RPZTGEcz5FUfWzpaEWH6-80" value="" style="curved=1;startArrow=none;endArrow=block;exitX=0.5;exitY=1;entryX=0.5;entryY=0;rounded=0;fontSize=22;" edge="1" parent="1" source="RPZTGEcz5FUfWzpaEWH6-67" target="RPZTGEcz5FUfWzpaEWH6-68">
          <mxGeometry relative="1" as="geometry">
            <Array as="points" />
          </mxGeometry>
        </mxCell>
        <mxCell id="RPZTGEcz5FUfWzpaEWH6-81" value="否" style="curved=1;startArrow=none;endArrow=block;exitX=0.5;exitY=1;entryX=0.5;entryY=0;rounded=0;fontSize=22;" edge="1" parent="1" source="RPZTGEcz5FUfWzpaEWH6-68" target="RPZTGEcz5FUfWzpaEWH6-69">
          <mxGeometry relative="1" as="geometry">
            <Array as="points" />
          </mxGeometry>
        </mxCell>
        <mxCell id="RPZTGEcz5FUfWzpaEWH6-82" value="" style="curved=1;startArrow=none;endArrow=block;exitX=0.5;exitY=1;entryX=0.5;entryY=0;rounded=0;fontSize=22;" edge="1" parent="1" source="RPZTGEcz5FUfWzpaEWH6-69" target="RPZTGEcz5FUfWzpaEWH6-70">
          <mxGeometry relative="1" as="geometry">
            <Array as="points" />
          </mxGeometry>
        </mxCell>
        <mxCell id="RPZTGEcz5FUfWzpaEWH6-83" value="" style="curved=1;startArrow=none;endArrow=block;entryX=0;entryY=0.75;rounded=0;entryDx=0;entryDy=0;fontSize=22;exitX=0;exitY=0.5;exitDx=0;exitDy=0;" edge="1" parent="1" source="RPZTGEcz5FUfWzpaEWH6-70" target="RPZTGEcz5FUfWzpaEWH6-65">
          <mxGeometry relative="1" as="geometry">
            <Array as="points">
              <mxPoint x="-112" y="2684" />
              <mxPoint x="-163" y="2097" />
            </Array>
            <mxPoint x="87" y="2752" as="sourcePoint" />
          </mxGeometry>
        </mxCell>
        <mxCell id="RPZTGEcz5FUfWzpaEWH6-84" value="是" style="curved=1;startArrow=none;endArrow=block;exitX=1;exitY=0.83;entryX=0.25;entryY=0;rounded=0;fontSize=22;" edge="1" parent="1" source="RPZTGEcz5FUfWzpaEWH6-68" target="RPZTGEcz5FUfWzpaEWH6-71">
          <mxGeometry relative="1" as="geometry">
            <Array as="points">
              <mxPoint x="300" y="2564" />
            </Array>
          </mxGeometry>
        </mxCell>
        <mxCell id="RPZTGEcz5FUfWzpaEWH6-85" value="否" style="curved=1;startArrow=none;endArrow=block;exitX=1;exitY=0.72;entryX=0.59;entryY=0;rounded=0;fontSize=22;" edge="1" parent="1" source="RPZTGEcz5FUfWzpaEWH6-66" target="RPZTGEcz5FUfWzpaEWH6-71">
          <mxGeometry relative="1" as="geometry">
            <Array as="points">
              <mxPoint x="449" y="2216" />
              <mxPoint x="449" y="2564" />
            </Array>
          </mxGeometry>
        </mxCell>
        <mxCell id="RPZTGEcz5FUfWzpaEWH6-86" value="" style="curved=1;startArrow=none;endArrow=block;exitX=0.5;exitY=1;entryX=0.5;entryY=0;rounded=0;fontSize=22;" edge="1" parent="1" source="RPZTGEcz5FUfWzpaEWH6-71" target="RPZTGEcz5FUfWzpaEWH6-72">
          <mxGeometry relative="1" as="geometry">
            <Array as="points" />
          </mxGeometry>
        </mxCell>
        <mxCell id="RPZTGEcz5FUfWzpaEWH6-87" value="" style="curved=1;startArrow=none;endArrow=block;exitX=0.5;exitY=1;entryX=0.5;entryY=0;rounded=0;fontSize=22;" edge="1" parent="1" source="RPZTGEcz5FUfWzpaEWH6-72" target="RPZTGEcz5FUfWzpaEWH6-73">
          <mxGeometry relative="1" as="geometry">
            <Array as="points" />
          </mxGeometry>
        </mxCell>
        <mxCell id="RPZTGEcz5FUfWzpaEWH6-88" value="" style="curved=1;startArrow=none;endArrow=block;exitX=0.5;exitY=1;entryX=0.5;entryY=0;rounded=0;fontSize=22;" edge="1" parent="1" source="RPZTGEcz5FUfWzpaEWH6-73" target="RPZTGEcz5FUfWzpaEWH6-74">
          <mxGeometry relative="1" as="geometry">
            <Array as="points" />
          </mxGeometry>
        </mxCell>
        <mxCell id="RPZTGEcz5FUfWzpaEWH6-89" value="" style="curved=1;startArrow=none;endArrow=block;exitX=0.5;exitY=1;entryX=0.5;entryY=0;rounded=0;fontSize=22;" edge="1" parent="1" source="RPZTGEcz5FUfWzpaEWH6-74" target="RPZTGEcz5FUfWzpaEWH6-75">
          <mxGeometry relative="1" as="geometry">
            <Array as="points" />
          </mxGeometry>
        </mxCell>
        <mxCell id="RPZTGEcz5FUfWzpaEWH6-90" value="" style="curved=1;startArrow=none;endArrow=block;exitX=0.5;exitY=1;entryX=0.5;entryY=0;rounded=0;fontSize=22;" edge="1" parent="1" source="RPZTGEcz5FUfWzpaEWH6-75" target="RPZTGEcz5FUfWzpaEWH6-76">
          <mxGeometry relative="1" as="geometry">
            <Array as="points" />
          </mxGeometry>
        </mxCell>
      </root>
    </mxGraphModel>
  </diagram>
</mxfile>
